<svg xmlns="http://www.w3.org/2000/svg" xmlns:xlink="http://www.w3.org/1999/xlink" xml:lang="en" height="188.84pt" width="544.52pt" viewBox="-4.480000000000013 -22.240000000000002 544.52 188.84"><path d="M 120.60000000000001,17.640000000000004 L 138.6,17.64 L 139.114,17.633 L 139.629,17.611 L 140.143,17.574 L 140.657,17.522 L 141.171,17.456 L 141.686,17.376 L 142.2,17.28 L 142.714,17.17 L 143.229,17.045 L 143.743,16.905 L 144.257,16.751 L 144.771,16.582 L 145.286,16.398 L 145.8,16.2 L 146.314,15.987 L 146.829,15.759 L 147.343,15.517 L 147.857,15.26 L 148.371,14.988 L 148.886,14.701 L 149.4,14.4 L 149.914,14.084 L 150.429,13.753 L 150.943,13.408 L 151.457,13.048 L 151.971,12.673 L 152.486,12.284 L 153,11.88 L 153.514,11.461 L 154.029,11.028 L 154.543,10.58 L 155.057,10.117 L 155.571,9.639 L 156.086,9.147 L 156.6,8.64 L 157.114,8.118 L 157.629,7.582 L 158.143,7.031 L 158.657,6.465 L 159.171,5.885 L 159.686,5.29 L 160.2,4.68 L 160.714,4.056 L 161.229,3.416 L 161.743,2.762 L 162.257,2.094 L 162.771,1.411 L 163.286,0.713 L 163.8,-0 L 163.8,-0 L 163.286,-0.713 L 162.771,-1.411 L 162.257,-2.094 L 161.743,-2.762 L 161.229,-3.416 L 160.714,-4.056 L 160.2,-4.68 L 159.686,-5.29 L 159.171,-5.885 L 158.657,-6.465 L 158.143,-7.031 L 157.629,-7.582 L 157.114,-8.118 L 156.6,-8.64 L 156.086,-9.147 L 155.571,-9.639 L 155.057,-10.117 L 154.543,-10.58 L 154.029,-11.028 L 153.514,-11.461 L 153,-11.88 L 152.486,-12.284 L 151.971,-12.673 L 151.457,-13.048 L 150.943,-13.408 L 150.429,-13.753 L 149.914,-14.084 L 149.4,-14.4 L 148.886,-14.701 L 148.371,-14.988 L 147.857,-15.26 L 147.343,-15.517 L 146.829,-15.759 L 146.314,-15.987 L 145.8,-16.2 L 145.286,-16.398 L 144.771,-16.582 L 144.257,-16.751 L 143.743,-16.905 L 143.229,-17.045 L 142.714,-17.17 L 142.2,-17.28 L 141.686,-17.376 L 141.171,-17.456 L 140.657,-17.522 L 140.143,-17.574 L 139.629,-17.611 L 139.114,-17.633 L 138.6,-17.64 L 120.6,-17.64 L 120.6,-17.64 L 121.291,-16.92 L 121.954,-16.2 L 122.587,-15.48 L 123.192,-14.76 L 123.768,-14.04 L 124.315,-13.32 L 124.834,-12.6 L 125.323,-11.88 L 125.784,-11.16 L 126.216,-10.44 L 126.619,-9.72 L 126.994,-9 L 127.339,-8.28 L 127.656,-7.56 L 127.944,-6.84 L 128.203,-6.12 L 128.434,-5.4 L 128.635,-4.68 L 128.808,-3.96 L 128.952,-3.24 L 129.067,-2.52 L 129.154,-1.8 L 129.211,-1.08 L 129.24,-0.36 L 129.24,0.36 L 129.211,1.08 L 129.154,1.8 L 129.067,2.52 L 128.952,3.24 L 128.808,3.96 L 128.635,4.68 L 128.434,5.4 L 128.203,6.12 L 127.944,6.84 L 127.656,7.56 L 127.339,8.28 L 126.994,9 L 126.619,9.72 L 126.216,10.44 L 125.784,11.16 L 125.323,11.88 L 124.834,12.6 L 124.315,13.32 L 123.768,14.04 L 123.192,14.76 L 122.587,15.48 L 121.954,16.2 L 121.291,16.92 L 120.6,17.64" style="stroke:black;fill:none;stroke-width:2.0;stroke-dasharray:-;stroke-linecap:round;stroke-linejoin:round;" /><path d="M 115.2,17.640000000000004 L 115.891,16.92 L 116.554,16.2 L 117.187,15.48 L 117.792,14.76 L 118.368,14.04 L 118.915,13.32 L 119.434,12.6 L 119.923,11.88 L 120.384,11.16 L 120.816,10.44 L 121.219,9.72 L 121.594,9 L 121.939,8.28 L 122.256,7.56 L 122.544,6.84 L 122.803,6.12 L 123.034,5.4 L 123.235,4.68 L 123.408,3.96 L 123.552,3.24 L 123.667,2.52 L 123.754,1.8 L 123.811,1.08 L 123.84,0.36 L 123.84,-0.36 L 123.811,-1.08 L 123.754,-1.8 L 123.667,-2.52 L 123.552,-3.24 L 123.408,-3.96 L 123.235,-4.68 L 123.034,-5.4 L 122.803,-6.12 L 122.544,-6.84 L 122.256,-7.56 L 121.939,-8.28 L 121.594,-9 L 121.219,-9.72 L 120.816,-10.44 L 120.384,-11.16 L 119.923,-11.88 L 119.434,-12.6 L 118.915,-13.32 L 118.368,-14.04 L 117.792,-14.76 L 117.187,-15.48 L 116.554,-16.2 L 115.891,-16.92 L 115.2,-17.64" style="stroke:black;fill:none;stroke-width:2.0;stroke-dasharray:-;stroke-linecap:round;stroke-linejoin:round;" /><path d="M 108.0,9.0 L 121.594,9" style="stroke:black;fill:none;stroke-width:2.0;stroke-dasharray:-;stroke-linecap:round;stroke-linejoin:round;" /><path d="M 108.0,-9.0 L 121.594,-9" style="stroke:black;fill:none;stroke-width:2.0;stroke-dasharray:-;stroke-linecap:round;stroke-linejoin:round;" /><path d="M 163.8,-0.0 L 176.4,-0" style="stroke:black;fill:none;stroke-width:2.0;stroke-dasharray:-;stroke-linecap:round;stroke-linejoin:round;" /><path d="M 144.0,162.0 L 145.153,161.963 L 146.302,161.852 L 147.441,161.668 L 148.566,161.411 L 149.672,161.083 L 150.755,160.685 L 151.81,160.217 L 152.833,159.684 L 153.82,159.086 L 154.766,158.425 L 155.668,157.706 L 156.522,156.93 L 157.325,156.101 L 158.073,155.223 L 158.763,154.298 L 159.393,153.331 L 159.959,152.326 L 160.459,151.286 L 160.892,150.217 L 161.256,149.121 L 161.549,148.005 L 161.769,146.873 L 161.917,145.728 L 161.991,144.577 L 161.991,143.423 L 161.917,142.272 L 161.769,141.127 L 161.549,139.995 L 161.256,138.879 L 160.892,137.783 L 160.459,136.714 L 159.959,135.674 L 159.393,134.669 L 158.763,133.702 L 158.073,132.777 L 157.325,131.899 L 156.522,131.07 L 155.668,130.294 L 154.766,129.575 L 153.82,128.914 L 152.833,128.316 L 151.81,127.783 L 150.755,127.315 L 149.672,126.917 L 148.566,126.589 L 147.441,126.332 L 146.302,126.148 L 145.153,126.037 L 144,126 L 144,126 L 120.6,126 L 120.6,144 L 120.6,162 L 144,162" style="stroke:black;fill:none;stroke-width:2.0;stroke-dasharray:-;stroke-linecap:round;stroke-linejoin:round;" /><path d="M 108.0,153.0 L 120.6,153" style="stroke:black;fill:none;stroke-width:2.0;stroke-dasharray:-;stroke-linecap:round;stroke-linejoin:round;" /><path d="M 108.0,135.0 L 120.6,135" style="stroke:black;fill:none;stroke-width:2.0;stroke-dasharray:-;stroke-linecap:round;stroke-linejoin:round;" /><path d="M 162.0,144.0 L 174.6,144" style="stroke:black;fill:none;stroke-width:2.0;stroke-dasharray:-;stroke-linecap:round;stroke-linejoin:round;" /><path d="M 264.59999999999997,35.64 L 282.6,35.64 L 283.114,35.633 L 283.629,35.611 L 284.143,35.574 L 284.657,35.522 L 285.171,35.456 L 285.686,35.376 L 286.2,35.28 L 286.714,35.17 L 287.229,35.045 L 287.743,34.905 L 288.257,34.751 L 288.771,34.582 L 289.286,34.398 L 289.8,34.2 L 290.314,33.987 L 290.829,33.759 L 291.343,33.517 L 291.857,33.26 L 292.371,32.988 L 292.886,32.701 L 293.4,32.4 L 293.914,32.084 L 294.429,31.753 L 294.943,31.408 L 295.457,31.048 L 295.971,30.673 L 296.486,30.284 L 297,29.88 L 297.514,29.461 L 298.029,29.028 L 298.543,28.58 L 299.057,28.117 L 299.571,27.639 L 300.086,27.147 L 300.6,26.64 L 301.114,26.118 L 301.629,25.582 L 302.143,25.031 L 302.657,24.465 L 303.171,23.885 L 303.686,23.29 L 304.2,22.68 L 304.714,22.056 L 305.229,21.416 L 305.743,20.762 L 306.257,20.094 L 306.771,19.411 L 307.286,18.713 L 307.8,18 L 307.8,18 L 307.286,17.287 L 306.771,16.589 L 306.257,15.906 L 305.743,15.238 L 305.229,14.584 L 304.714,13.944 L 304.2,13.32 L 303.686,12.71 L 303.171,12.115 L 302.657,11.535 L 302.143,10.969 L 301.629,10.418 L 301.114,9.882 L 300.6,9.36 L 300.086,8.853 L 299.571,8.361 L 299.057,7.883 L 298.543,7.42 L 298.029,6.972 L 297.514,6.539 L 297,6.12 L 296.486,5.716 L 295.971,5.327 L 295.457,4.952 L 294.943,4.592 L 294.429,4.247 L 293.914,3.916 L 293.4,3.6 L 292.886,3.299 L 292.371,3.012 L 291.857,2.74 L 291.343,2.483 L 290.829,2.241 L 290.314,2.013 L 289.8,1.8 L 289.286,1.602 L 288.771,1.418 L 288.257,1.249 L 287.743,1.095 L 287.229,0.955 L 286.714,0.83 L 286.2,0.72 L 285.686,0.624 L 285.171,0.544 L 284.657,0.478 L 284.143,0.426 L 283.629,0.389 L 283.114,0.367 L 282.6,0.36 L 264.6,0.36 L 264.6,0.36 L 265.291,1.08 L 265.954,1.8 L 266.587,2.52 L 267.192,3.24 L 267.768,3.96 L 268.315,4.68 L 268.834,5.4 L 269.323,6.12 L 269.784,6.84 L 270.216,7.56 L 270.619,8.28 L 270.994,9 L 271.339,9.72 L 271.656,10.44 L 271.944,11.16 L 272.203,11.88 L 272.434,12.6 L 272.635,13.32 L 272.808,14.04 L 272.952,14.76 L 273.067,15.48 L 273.154,16.2 L 273.211,16.92 L 273.24,17.64 L 273.24,18.36 L 273.211,19.08 L 273.154,19.8 L 273.067,20.52 L 272.952,21.24 L 272.808,21.96 L 272.635,22.68 L 272.434,23.4 L 272.203,24.12 L 271.944,24.84 L 271.656,25.56 L 271.339,26.28 L 270.994,27 L 270.619,27.72 L 270.216,28.44 L 269.784,29.16 L 269.323,29.88 L 268.834,30.6 L 268.315,31.32 L 267.768,32.04 L 267.192,32.76 L 266.587,33.48 L 265.954,34.2 L 265.291,34.92 L 264.6,35.64" style="stroke:black;fill:none;stroke-width:2.0;stroke-dasharray:-;stroke-linecap:round;stroke-linejoin:round;" /><path d="M 259.2,35.64 L 259.891,34.92 L 260.554,34.2 L 261.187,33.48 L 261.792,32.76 L 262.368,32.04 L 262.915,31.32 L 263.434,30.6 L 263.923,29.88 L 264.384,29.16 L 264.816,28.44 L 265.219,27.72 L 265.594,27 L 265.939,26.28 L 266.256,25.56 L 266.544,24.84 L 266.803,24.12 L 267.034,23.4 L 267.235,22.68 L 267.408,21.96 L 267.552,21.24 L 267.667,20.52 L 267.754,19.8 L 267.811,19.08 L 267.84,18.36 L 267.84,17.64 L 267.811,16.92 L 267.754,16.2 L 267.667,15.48 L 267.552,14.76 L 267.408,14.04 L 267.235,13.32 L 267.034,12.6 L 266.803,11.88 L 266.544,11.16 L 266.256,10.44 L 265.939,9.72 L 265.594,9 L 265.219,8.28 L 264.816,7.56 L 264.384,6.84 L 263.923,6.12 L 263.434,5.4 L 262.915,4.68 L 262.368,3.96 L 261.792,3.24 L 261.187,2.52 L 260.554,1.8 L 259.891,1.08 L 259.2,0.36" style="stroke:black;fill:none;stroke-width:2.0;stroke-dasharray:-;stroke-linecap:round;stroke-linejoin:round;" /><path d="M 252.0,27.0 L 265.594,27" style="stroke:black;fill:none;stroke-width:2.0;stroke-dasharray:-;stroke-linecap:round;stroke-linejoin:round;" /><path d="M 252.0,9.0 L 265.594,9" style="stroke:black;fill:none;stroke-width:2.0;stroke-dasharray:-;stroke-linecap:round;stroke-linejoin:round;" /><path d="M 307.8,18.0 L 320.4,18" style="stroke:black;fill:none;stroke-width:2.0;stroke-dasharray:-;stroke-linecap:round;stroke-linejoin:round;" /><path d="M 288.0,108.0 L 289.153,107.963 L 290.302,107.852 L 291.441,107.668 L 292.566,107.411 L 293.672,107.083 L 294.755,106.685 L 295.81,106.217 L 296.833,105.684 L 297.82,105.086 L 298.766,104.425 L 299.668,103.706 L 300.522,102.93 L 301.325,102.101 L 302.073,101.223 L 302.763,100.298 L 303.393,99.331 L 303.959,98.326 L 304.459,97.286 L 304.892,96.217 L 305.256,95.121 L 305.549,94.005 L 305.769,92.873 L 305.917,91.728 L 305.991,90.577 L 305.991,89.423 L 305.917,88.272 L 305.769,87.127 L 305.549,85.995 L 305.256,84.879 L 304.892,83.783 L 304.459,82.714 L 303.959,81.674 L 303.393,80.669 L 302.763,79.702 L 302.073,78.777 L 301.325,77.899 L 300.522,77.07 L 299.668,76.294 L 298.766,75.575 L 297.82,74.914 L 296.833,74.316 L 295.81,73.783 L 294.755,73.315 L 293.672,72.917 L 292.566,72.589 L 291.441,72.332 L 290.302,72.148 L 289.153,72.037 L 288,72 L 288,72 L 264.6,72 L 264.6,90 L 264.6,108 L 288,108" style="stroke:black;fill:none;stroke-width:2.0;stroke-dasharray:-;stroke-linecap:round;stroke-linejoin:round;" /><path d="M 252.0,99.0 L 264.6,99" style="stroke:black;fill:none;stroke-width:2.0;stroke-dasharray:-;stroke-linecap:round;stroke-linejoin:round;" /><path d="M 252.0,81.0 L 264.6,81" style="stroke:black;fill:none;stroke-width:2.0;stroke-dasharray:-;stroke-linecap:round;stroke-linejoin:round;" /><path d="M 306.0,90.0 L 318.6,90" style="stroke:black;fill:none;stroke-width:2.0;stroke-dasharray:-;stroke-linecap:round;stroke-linejoin:round;" /><path d="M 390.59999999999997,134.64000000000001 L 408.6,134.64 L 409.114,134.633 L 409.629,134.611 L 410.143,134.574 L 410.657,134.522 L 411.171,134.456 L 411.686,134.376 L 412.2,134.28 L 412.714,134.17 L 413.229,134.045 L 413.743,133.905 L 414.257,133.751 L 414.771,133.582 L 415.286,133.398 L 415.8,133.2 L 416.314,132.987 L 416.829,132.759 L 417.343,132.517 L 417.857,132.26 L 418.371,131.988 L 418.886,131.701 L 419.4,131.4 L 419.914,131.084 L 420.429,130.753 L 420.943,130.408 L 421.457,130.048 L 421.971,129.673 L 422.486,129.284 L 423,128.88 L 423.514,128.461 L 424.029,128.028 L 424.543,127.58 L 425.057,127.117 L 425.571,126.639 L 426.086,126.147 L 426.6,125.64 L 427.114,125.118 L 427.629,124.582 L 428.143,124.031 L 428.657,123.465 L 429.171,122.885 L 429.686,122.29 L 430.2,121.68 L 430.714,121.056 L 431.229,120.416 L 431.743,119.762 L 432.257,119.094 L 432.771,118.411 L 433.286,117.713 L 433.8,117 L 433.8,117 L 433.286,116.287 L 432.771,115.589 L 432.257,114.906 L 431.743,114.238 L 431.229,113.584 L 430.714,112.944 L 430.2,112.32 L 429.686,111.71 L 429.171,111.115 L 428.657,110.535 L 428.143,109.969 L 427.629,109.418 L 427.114,108.882 L 426.6,108.36 L 426.086,107.853 L 425.571,107.361 L 425.057,106.883 L 424.543,106.42 L 424.029,105.972 L 423.514,105.539 L 423,105.12 L 422.486,104.716 L 421.971,104.327 L 421.457,103.952 L 420.943,103.592 L 420.429,103.247 L 419.914,102.916 L 419.4,102.6 L 418.886,102.299 L 418.371,102.012 L 417.857,101.74 L 417.343,101.483 L 416.829,101.241 L 416.314,101.013 L 415.8,100.8 L 415.286,100.602 L 414.771,100.418 L 414.257,100.249 L 413.743,100.095 L 413.229,99.955 L 412.714,99.83 L 412.2,99.72 L 411.686,99.624 L 411.171,99.544 L 410.657,99.478 L 410.143,99.426 L 409.629,99.389 L 409.114,99.367 L 408.6,99.36 L 390.6,99.36 L 390.6,99.36 L 391.291,100.08 L 391.954,100.8 L 392.587,101.52 L 393.192,102.24 L 393.768,102.96 L 394.315,103.68 L 394.834,104.4 L 395.323,105.12 L 395.784,105.84 L 396.216,106.56 L 396.619,107.28 L 396.994,108 L 397.339,108.72 L 397.656,109.44 L 397.944,110.16 L 398.203,110.88 L 398.434,111.6 L 398.635,112.32 L 398.808,113.04 L 398.952,113.76 L 399.067,114.48 L 399.154,115.2 L 399.211,115.92 L 399.24,116.64 L 399.24,117.36 L 399.211,118.08 L 399.154,118.8 L 399.067,119.52 L 398.952,120.24 L 398.808,120.96 L 398.635,121.68 L 398.434,122.4 L 398.203,123.12 L 397.944,123.84 L 397.656,124.56 L 397.339,125.28 L 396.994,126 L 396.619,126.72 L 396.216,127.44 L 395.784,128.16 L 395.323,128.88 L 394.834,129.6 L 394.315,130.32 L 393.768,131.04 L 393.192,131.76 L 392.587,132.48 L 391.954,133.2 L 391.291,133.92 L 390.6,134.64" style="stroke:black;fill:none;stroke-width:2.0;stroke-dasharray:-;stroke-linecap:round;stroke-linejoin:round;" /><path d="M 378.0,126.0 L 396.994,126" style="stroke:black;fill:none;stroke-width:2.0;stroke-dasharray:-;stroke-linecap:round;stroke-linejoin:round;" /><path d="M 378.0,108.0 L 396.994,108" style="stroke:black;fill:none;stroke-width:2.0;stroke-dasharray:-;stroke-linecap:round;stroke-linejoin:round;" /><path d="M 433.8,117.0 L 446.4,117" style="stroke:black;fill:none;stroke-width:2.0;stroke-dasharray:-;stroke-linecap:round;stroke-linejoin:round;" /><path d="M 108.0,-9.0 L 61.2,-9 L 14.4,-9" style="stroke:black;fill:none;stroke-width:2.0;stroke-dasharray:-;stroke-linecap:round;stroke-linejoin:round;" /><path d="M 36.0,-9.0 L 36,63 L 36,135" style="stroke:black;fill:none;stroke-width:2.0;stroke-dasharray:-;stroke-linecap:round;stroke-linejoin:round;" /><path d="M 36.0,135.0 L 72,135 L 108,135" style="stroke:black;fill:none;stroke-width:2.0;stroke-dasharray:-;stroke-linecap:round;stroke-linejoin:round;" /><path d="M 108.0,9.0 L 82.8,9 L 57.6,9" style="stroke:black;fill:none;stroke-width:2.0;stroke-dasharray:-;stroke-linecap:round;stroke-linejoin:round;" /><path d="M 72.0,9.0 L 72,81 L 72,153" style="stroke:black;fill:none;stroke-width:2.0;stroke-dasharray:-;stroke-linecap:round;stroke-linejoin:round;" /><path d="M 72.0,153.0 L 90,153 L 108,153" style="stroke:black;fill:none;stroke-width:2.0;stroke-dasharray:-;stroke-linecap:round;stroke-linejoin:round;" /><path d="M 252.0,27.0 L 226.8,27 L 201.6,27" style="stroke:black;fill:none;stroke-width:2.0;stroke-dasharray:-;stroke-linecap:round;stroke-linejoin:round;" /><path d="M 201.6,27.0 L 201.6,54 L 201.6,81" style="stroke:black;fill:none;stroke-width:2.0;stroke-dasharray:-;stroke-linecap:round;stroke-linejoin:round;" /><path d="M 201.6,81.0 L 226.8,81 L 252,81" style="stroke:black;fill:none;stroke-width:2.0;stroke-dasharray:-;stroke-linecap:round;stroke-linejoin:round;" /><path d="M 176.4,-0.0 L 190.8,-0 L 205.2,-0" style="stroke:black;fill:none;stroke-width:2.0;stroke-dasharray:-;stroke-linecap:round;stroke-linejoin:round;" /><path d="M 205.20000000000002,-0.0 L 205.2,4.5 L 205.2,9" style="stroke:black;fill:none;stroke-width:2.0;stroke-dasharray:-;stroke-linecap:round;stroke-linejoin:round;" /><path d="M 205.20000000000002,9.0 L 228.6,9 L 252,9" style="stroke:black;fill:none;stroke-width:2.0;stroke-dasharray:-;stroke-linecap:round;stroke-linejoin:round;" /><path d="M 205.20000000000002,-0.0 L 205.2,49.5 L 205.2,99" style="stroke:black;fill:none;stroke-width:2.0;stroke-dasharray:-;stroke-linecap:round;stroke-linejoin:round;" /><path d="M 205.20000000000002,99.0 L 228.6,99 L 252,99" style="stroke:black;fill:none;stroke-width:2.0;stroke-dasharray:-;stroke-linecap:round;stroke-linejoin:round;" /><path d="M 320.40000000000003,18.0 L 345.6,18 L 370.8,18" style="stroke:black;fill:none;stroke-width:2.0;stroke-dasharray:-;stroke-linecap:round;stroke-linejoin:round;" /><path d="M 174.6,144.0 L 276.3,135 L 378,126" style="stroke:black;fill:none;stroke-width:2.0;stroke-dasharray:-;stroke-linecap:round;stroke-linejoin:round;" /><path d="M 318.59999999999997,90.0 L 348.3,99 L 378,108" style="stroke:black;fill:none;stroke-width:2.0;stroke-dasharray:-;stroke-linecap:round;stroke-linejoin:round;" /><path d="M 446.40000000000003,117.0 L 471.6,117 L 496.8,117" style="stroke:black;fill:none;stroke-width:2.0;stroke-dasharray:-;stroke-linecap:round;stroke-linejoin:round;" /><circle cx="14.4" cy="-9" r="2.7" style="stroke:black;fill:white;stroke-width:2.0;stroke-dasharray:-;" /><text x="8.099999999999987" y="-23.000000000000014" dominant-baseline="central" fill="black" font-size="14" font-family="sans" text-anchor="end"><tspan x="8.099999999999987" dy="14">a</tspan></text><circle cx="36" cy="135" r="2.7" style="stroke:black;fill:black;stroke-width:2.0;stroke-dasharray:-;" /><circle cx="57.6" cy="9" r="2.7" style="stroke:black;fill:white;stroke-width:2.0;stroke-dasharray:-;" /><text x="51.30000000000001" y="-5.000000000000007" dominant-baseline="central" fill="black" font-size="14" font-family="sans" text-anchor="end"><tspan x="51.30000000000001" dy="14">b</tspan></text><circle cx="72" cy="153" r="2.7" style="stroke:black;fill:black;stroke-width:2.0;stroke-dasharray:-;" /><circle cx="201.6" cy="27" r="2.7" style="stroke:black;fill:white;stroke-width:2.0;stroke-dasharray:-;" /><text x="195.3" y="12.999999999999993" dominant-baseline="central" fill="black" font-size="14" font-family="sans" text-anchor="end"><tspan x="195.3" dy="14">cin</tspan></text><circle cx="201.6" cy="81" r="2.7" style="stroke:black;fill:black;stroke-width:2.0;stroke-dasharray:-;" /><circle cx="205.2" cy="-0" r="2.7" style="stroke:black;fill:black;stroke-width:2.0;stroke-dasharray:-;" /><circle cx="205.2" cy="99" r="2.7" style="stroke:black;fill:black;stroke-width:2.0;stroke-dasharray:-;" /><circle cx="370.8" cy="18" r="2.7" style="stroke:black;fill:white;stroke-width:2.0;stroke-dasharray:-;" /><text x="377.09999999999997" y="4.0" dominant-baseline="central" fill="black" font-size="14" font-family="sans" text-anchor="start"><tspan x="377.09999999999997" dy="14">sum</tspan></text><circle cx="496.8" cy="117" r="2.7" style="stroke:black;fill:white;stroke-width:2.0;stroke-dasharray:-;" /><text x="503.09999999999997" y="103.0" dominant-baseline="central" fill="black" font-size="14" font-family="sans" text-anchor="start"><tspan x="503.09999999999997" dy="14">carry</tspan></text></svg>